<?xml version="1.0" encoding="utf-8"?>
<!-- Generator: Adobe Illustrator 26.3.1, SVG Export Plug-In . SVG Version: 6.00 Build 0)  -->
<svg version="1.1" id="Layer_1" xmlns="http://www.w3.org/2000/svg" xmlns:xlink="http://www.w3.org/1999/xlink" x="0px" y="0px"
	 viewBox="0 0 113.4 113.4" style="enable-background:new 0 0 113.4 113.4;" xml:space="preserve">
<style type="text/css">
	.st0{fill:#5F32FF;}
	.st1{fill:#FFFFFF;}
</style>
<g>
	<path class="st0" d="M78.2,111.8H35.5c-18.6,0-33.8-15.1-33.8-33.8V35.4c0-18.6,15.1-33.8,33.8-33.8h42.7
		c18.6,0,33.8,15.1,33.8,33.8v42.7C111.9,96.7,96.8,111.8,78.2,111.8z"/>
	<g>
		<path class="st1" d="M53.6,65.2l-3.2-1.8V82c0,3.5,2.9,6.4,6.4,6.4l0,0c3.5,0,6.4-2.9,6.4-6.4V62.5l-3,2.5
			C57.2,67.3,53.6,65.2,53.6,65.2z"/>
		<path class="st1" d="M33,50.6l20.5,11.2c1,0.6,2.1,1.1,3.3,1.1c1.8,0,2.7-0.5,4.1-1.7l20.5-19.5l-5,9.5V82c0,3.5,2.9,6.4,6.4,6.4
			l0,0c3.5,0,6.4-2.9,6.4-6.4V31.4l0,0l0,0c0-0.7-0.1-1.3-0.3-1.9c-0.1-0.2-0.1-0.4-0.2-0.6c-0.2-0.4-0.4-0.7-0.6-1.1
			c-0.3-0.5-0.8-1-1.2-1.4c-0.3-0.3-0.7-0.5-1-0.7c-0.4-0.2-0.7-0.4-1.1-0.5c-0.6-0.2-1.2-0.3-1.9-0.3h0l0,0l0,0
			c-1.7,0-3.2,0.7-4.4,1.7L78.3,27L55.7,48.5L35.1,37.1c-2.1-1.5-4.4-1.4-4.4-1.4c-3.5,0-6.4,2.9-6.4,6.4c0,0,0,0,0,0V82
			c0,3.5,2.9,6.4,6.4,6.4l0,0c3.5,0,6.4-2.9,6.4-6.4V57.2"/>
	</g>
</g>
</svg>
